HIERARCHY
ROOT Hips
{
	OFFSET 0.000000 0.000000 0.000000
	CHANNELS 6 Xposition Yposition Zposition Zrotation Yrotation Xrotation 
	JOINT LHipJoint
	{
		OFFSET 0.000000 0.000000 0.000000
		CHANNELS 3 Zrotation Yrotation Xrotation
		JOINT LeftUpLeg
		{
			OFFSET 1.363060 -1.794630 0.839290
			CHANNELS 3 Zrotation Yrotation Xrotation
			JOINT LeftLeg
			{
				OFFSET 2.448110 -6.726130 0.000000
				CHANNELS 3 Zrotation Yrotation Xrotation
				JOINT LeftFoot
				{
					OFFSET 2.562200 -7.039590 0.000000
					CHANNELS 3 Zrotation Yrotation Xrotation
					JOINT LeftToeBase
					{
						OFFSET 0.157640 -0.433110 2.322550
						CHANNELS 3 Zrotation Yrotation Xrotation
						End Site
						{
							OFFSET 0.000000 0.000000 0.000000
						}
					}
				}
			}
		}
	}
	JOINT RHipJoint
	{
		OFFSET 0.000000 0.000000 0.000000
		CHANNELS 3 Zrotation Yrotation Xrotation
		JOINT RightUpLeg
		{
			OFFSET -1.305520 -1.794630 0.839290
			CHANNELS 3 Zrotation Yrotation Xrotation
			JOINT RightLeg
			{
				OFFSET -2.542530 -6.985550 0.000000
				CHANNELS 3 Zrotation Yrotation Xrotation
				JOINT RightFoot
				{
					OFFSET -2.568260 -7.056230 0.000000
					CHANNELS 3 Zrotation Yrotation Xrotation
					JOINT RightToeBase
					{
						OFFSET -0.164730 -0.452590 2.363150
						CHANNELS 3 Zrotation Yrotation Xrotation
						End Site
						{
							OFFSET 0.000000 0.000000 0.000000
						}
					}
				}
			}
		}
	}
	JOINT LowerBack
	{
		OFFSET 0.000000 0.000000 0.000000
		CHANNELS 3 Zrotation Yrotation Xrotation
		JOINT Spine
		{
			OFFSET 0.028270 2.035590 -0.193380
			CHANNELS 3 Zrotation Yrotation Xrotation
			JOINT Spine1
			{
				OFFSET 0.056720 2.048850 -0.042750
				CHANNELS 3 Zrotation Yrotation Xrotation
				JOINT Neck
				{
					OFFSET 0.000000 0.000000 0.000000
					CHANNELS 3 Zrotation Yrotation Xrotation
					JOINT Neck1
					{
						OFFSET -0.054170 1.746240 0.172020
						CHANNELS 3 Zrotation Yrotation Xrotation
						JOINT Head
						{
							OFFSET 0.104070 1.761360 -0.123970
							CHANNELS 3 Zrotation Yrotation Xrotation
							End Site
							{
								OFFSET 0.000000 0.000000 0.000000
							}
						}
					}
				}
				JOINT LeftShoulder
				{
					OFFSET 0.000000 0.000000 0.000000
					CHANNELS 3 Zrotation Yrotation Xrotation
					JOINT LeftArm
					{
						OFFSET 3.362410 1.200890 -0.311210
						CHANNELS 3 Zrotation Yrotation Xrotation
						JOINT LeftForeArm
						{
							OFFSET 4.983000 -0.000000 -0.000000
							CHANNELS 3 Zrotation Yrotation Xrotation
							JOINT LeftHand
							{
								OFFSET 3.483560 -0.000000 -0.000000
								CHANNELS 3 Zrotation Yrotation Xrotation
								JOINT LeftFingerBase
								{
									OFFSET 0.000000 0.000000 0.000000
									CHANNELS 3 Zrotation Yrotation Xrotation
									JOINT LeftHandIndex1
									{
										OFFSET 0.715260 -0.000000 -0.000000
										CHANNELS 3 Zrotation Yrotation Xrotation
										End Site
										{
											OFFSET 0.000000 0.000000 0.000000
										}
									}
								}
								JOINT LThumb
								{
									OFFSET 0.000000 0.000000 0.000000
									CHANNELS 3 Zrotation Yrotation Xrotation
									End Site
									{
										OFFSET 0.000000 0.000000 0.000000
									}
								}
							}
						}
					}
				}
				JOINT RightShoulder
				{
					OFFSET 0.000000 0.000000 0.000000
					CHANNELS 3 Zrotation Yrotation Xrotation
					JOINT RightArm
					{
						OFFSET -3.136600 1.374050 -0.404650
						CHANNELS 3 Zrotation Yrotation Xrotation
						JOINT RightForeArm
						{
							OFFSET -5.241900 -0.000000 -0.000000
							CHANNELS 3 Zrotation Yrotation Xrotation
							JOINT RightHand
							{
								OFFSET -3.444170 -0.000000 -0.000000
								CHANNELS 3 Zrotation Yrotation Xrotation
								JOINT RightFingerBase
								{
									OFFSET 0.000000 0.000000 0.000000
									CHANNELS 3 Zrotation Yrotation Xrotation
									JOINT RightHandIndex1
									{
										OFFSET -0.622530 -0.000000 -0.000000
										CHANNELS 3 Zrotation Yrotation Xrotation
										End Site
										{
											OFFSET 0.000000 0.000000 0.000000
										}
									}
								}
								JOINT RThumb
								{
									OFFSET 0.000000 0.000000 0.000000
									CHANNELS 3 Zrotation Yrotation Xrotation
									End Site
									{
										OFFSET 0.000000 0.000000 0.000000
									}
								}
							}
						}
					}
				}
			}
		}
	}
}
MOTION
Frames: 7
Frame Time: 0.008333
2.914675 16.339046 -20.178354 -0.371736 -46.826077 15.672903 6.116036 -1.159549 -2.950004 -27.840156 4.765675 -45.335448 7.199609 17.990838 51.347511 -1.286592 13.029493 -19.107952 0.100000 -2.039800 -5.615600 -8.179643 0.567509 -2.042502 19.734026 7.607535 -48.153447 -14.872178 -22.943834 75.123284 2.054355 -14.429148 -17.096925 -0.018900 0.887100 -2.438300 3.762389 0.231256 35.550940 1.046097 1.063169 2.967704 -1.855318 0.406249 3.513345 -2.997510 -1.001428 2.379680 5.440195 -2.905430 -3.360212 0.544900 -1.633000 -5.658400 -2.619871 -4.008240 2.172415 -53.329629 -23.276485 34.511793 38.717196 -44.517578 -20.837128 -1.170302 -1.445068 -31.830067 26.818725 2.061721 1.468500 -7.125000 0.000000 0.000000 1.613800 33.047500 -0.472800 5.455237 2.935127 1.362332 62.276295 9.470715 33.175153 -33.985689 43.572998 -17.169752 1.498970 0.396403 -3.690537 -28.046115 -6.028234 3.549000 7.125000 0.000000 0.000000 -2.406800 -37.176800 -0.463600 
2.879136 16.340743 -20.145149 -0.348841 -46.768845 15.818637 6.118254 -1.162579 -2.959828 -27.848941 4.723585 -45.295184 7.197303 17.994680 51.347200 -1.279629 13.042836 -19.210136 0.107300 -2.112200 -5.815900 -8.190363 0.570153 -2.013319 19.353875 8.020890 -49.104434 -14.931108 -23.023903 75.285646 1.859891 -13.373421 -16.322175 -0.049400 1.434800 -3.945900 3.757597 0.187561 35.683331 1.050259 1.009378 2.977760 -1.835550 0.378260 3.477761 -3.007134 -0.971377 2.461419 5.436589 -2.877455 -3.482042 0.547800 -1.623100 -5.736400 -2.619179 -4.019751 2.181931 -53.257381 -23.327411 34.419826 38.968011 -44.636744 -21.041614 -1.160315 -1.448260 -31.830317 26.780049 2.087631 1.484300 -7.125000 0.000000 0.000000 1.576800 33.085200 -0.460500 5.454217 2.935301 1.370769 62.181827 9.527721 33.177070 -34.127489 43.650791 -17.274974 1.498055 0.403740 -3.790508 -28.037305 -6.065904 3.571500 7.125000 0.000000 0.000000 -2.398700 -37.224800 -0.459200 
2.842537 16.342334 -20.111945 -0.297534 -46.706288 15.911010 6.118140 -1.166292 -2.969511 -27.873134 4.688309 -45.206218 7.191180 17.995399 51.335359 -1.267193 13.037895 -19.328360 0.113600 -2.172700 -5.983100 -8.192467 0.577053 -1.996460 18.994931 8.386639 -50.007410 -14.892690 -23.075400 75.192018 1.708320 -12.647622 -16.010813 -0.084100 1.870400 -5.147600 3.760674 0.140319 35.863988 1.058070 0.955058 2.997688 -1.804568 0.348188 3.454874 -3.018620 -0.937996 2.562903 5.441903 -2.845876 -3.587894 0.554700 -1.611000 -5.810400 -2.620821 -4.029579 2.192295 -53.218502 -23.365686 34.387748 39.199799 -44.750263 -21.226253 -1.147737 -1.450407 -31.816945 26.697679 2.108561 1.495000 -7.125000 0.000000 0.000000 1.502000 33.117200 -0.437500 5.456837 2.931837 1.380273 62.078065 9.601324 33.153046 -34.271755 43.728263 -17.384523 1.498339 0.410954 -3.893502 -28.053771 -6.101760 3.596700 7.125000 0.000000 0.000000 -2.413100 -37.272000 -0.459200 
2.804771 16.344350 -20.078634 -0.209219 -46.642575 15.946442 6.115427 -1.170535 -2.978820 -27.920123 4.673124 -45.074807 7.180220 17.991625 51.308380 -1.246692 12.996907 -19.450100 0.118200 -2.216300 -6.103800 -8.185246 0.589159 -1.993477 18.655472 8.699618 -50.846069 -14.747732 -23.094623 74.815026 1.600903 -12.249608 -16.133495 -0.112700 2.164600 -5.960700 3.765050 0.096494 36.084960 1.068839 0.906915 3.027111 -1.763593 0.318990 3.449059 -3.022418 -0.907606 2.673546 5.450857 -2.817034 -3.657914 0.559800 -1.599900 -5.868400 -2.623991 -4.037163 2.202447 -53.211893 -23.399593 34.423979 39.398073 -44.850792 -21.378217 -1.134570 -1.452134 -31.816225 26.592108 2.126080 1.502000 -7.125000 0.000000 0.000000 1.407500 33.144100 -0.409100 5.464588 2.925360 1.389891 61.967399 9.687653 33.097845 -34.400673 43.795416 -17.486000 1.500489 0.415914 -3.965128 -28.113684 -6.126306 3.621200 7.125000 0.000000 0.000000 -2.466200 -37.307200 -0.467200 
2.765520 16.346896 -20.045324 -0.096904 -46.576846 15.941805 6.109844 -1.175569 -2.987271 -27.980921 4.680781 -44.915586 7.165306 17.983233 51.268133 -1.214298 12.903899 -19.578060 0.119600 -2.229300 -6.139800 -8.168337 0.607966 -2.005432 18.341063 8.966241 -51.600076 -14.481650 -23.076023 74.111597 1.540462 -12.165647 -16.592758 -0.134100 2.360600 -6.503200 3.776075 0.056760 36.329506 1.082867 0.867761 3.063706 -1.713451 0.292077 3.463004 -3.019445 -0.882609 2.778973 5.461349 -2.792248 -3.669584 0.561100 -1.589500 -5.896100 -2.627730 -4.041624 2.210902 -53.244763 -23.429379 34.525932 39.552211 -44.933282 -21.488852 -1.122083 -1.454292 -31.835200 26.475228 2.153245 1.512900 -7.125000 0.000000 0.000000 1.304600 33.180600 -0.378000 5.477607 2.916616 1.398482 61.854105 9.788786 33.007966 -34.495965 43.841283 -17.565854 1.504514 0.418194 -3.997041 -28.211728 -6.137332 3.642900 7.125000 0.000000 0.000000 -2.553500 -37.327400 -0.482500 
2.724571 16.350821 -20.011907 0.035232 -46.504764 15.912709 6.101302 -1.181903 -2.994072 -28.052874 4.711467 -44.743761 7.146767 17.970287 51.215874 -1.170265 12.755040 -19.703078 0.117800 -2.212700 -6.093800 -8.140760 0.634662 -2.033289 18.043096 9.194994 -52.245748 -14.078721 -23.011412 73.036187 1.502703 -12.257222 -17.262142 -0.146700 2.467900 -6.800700 3.801377 0.017036 36.578956 1.099280 0.834315 3.104091 -1.662267 0.267141 3.495777 -3.008289 -0.863431 2.867827 5.471309 -2.770541 -3.610468 0.557100 -1.579000 -5.884900 -2.631692 -4.041873 2.216489 -53.323934 -23.446898 34.685120 39.654743 -44.994605 -21.553508 -1.110811 -1.457327 -31.879814 26.352472 2.194293 1.530300 -7.125000 0.000000 0.000000 1.198200 33.231500 -0.345700 5.494395 2.906297 1.405081 61.747559 9.899663 32.895693 -34.548287 43.861043 -17.615526 1.510064 0.417739 -3.987585 -28.336871 -6.136305 3.661000 7.125000 0.000000 0.000000 -2.665000 -37.333500 -0.503200 
2.681289 16.355913 -19.978066 0.179958 -46.426456 15.877918 6.089494 -1.189923 -2.998527 -28.136114 4.774284 -44.580202 7.125788 17.952452 51.152981 -1.122575 12.577210 -19.802592 0.116200 -2.197500 -6.051800 -8.101894 0.670832 -2.077443 17.755895 9.399161 -52.760047 -13.526767 -22.890218 71.547945 1.482517 -12.439727 -17.966808 -0.156500 2.549300 -7.026400 3.838030 -0.023129 36.813872 1.117528 0.805362 3.144684 -1.611650 0.243985 3.545116 -2.984480 -0.847596 2.928425 5.477477 -2.747319 -3.480225 0.544500 -1.566500 -5.832600 -2.635100 -4.037386 2.218638 -53.450302 -23.435507 34.896785 39.713739 -45.040590 -21.580538 -1.101673 -1.463052 -31.939804 26.239997 2.277208 1.570500 -7.125000 0.000000 0.000000 1.102500 33.330100 -0.315400 5.514084 2.894444 1.408890 61.652327 10.015756 32.777324 -34.553678 43.853157 -17.630444 1.516509 0.415415 -3.946888 -28.470925 -6.127621 3.675500 7.125000 0.000000 0.000000 -2.784800 -37.330200 -0.526100 
